<svg width="97" height="59" viewBox="0 0 97 59" fill="none" xmlns="http://www.w3.org/2000/svg">
<path d="M60.6031 0.76416H4.91875C2.20625 0.76416 0 2.97041 0 5.68291V42.1688C0 44.8813 2.20625 47.0876 4.91875 47.0876H25.9781V53.5735L12.1453 55.0938C11.3141 55.186 10.7156 55.9329 10.8062 56.7642C10.8984 57.5954 11.6469 58.1907 12.4766 58.1032L27.5734 56.4439H37.9453L53.0422 58.1032C53.0984 58.1095 53.1547 58.1126 53.2094 58.1126C53.9703 58.1126 54.6266 57.5392 54.7125 56.7642C54.8031 55.9329 54.2047 55.186 53.3734 55.0938L39.5406 53.5735V47.0876H60.6C63.3125 47.0876 65.5187 44.8813 65.5187 42.1688V5.68291C65.5219 2.97041 63.3156 0.76416 60.6031 0.76416ZM36.5172 53.4188H29.0062V47.0892H36.5172V53.4188ZM62.4953 42.1688C62.4953 43.2126 61.6469 44.061 60.6031 44.061H38.0297H27.4922H4.91875C3.875 44.061 3.02656 43.2126 3.02656 42.1688V5.68291C3.02656 4.63916 3.875 3.79072 4.91875 3.79072H60.6031C61.6469 3.79072 62.4953 4.63916 62.4953 5.68291V42.1688Z" fill="#4FA0FF"/>
<path d="M33.202 38.3701H32.3207C31.4848 38.3701 30.8066 39.0482 30.8066 39.8842C30.8066 40.7201 31.4848 41.3982 32.3207 41.3982H33.202C34.0379 41.3982 34.716 40.7201 34.716 39.8842C34.716 39.0482 34.0379 38.3701 33.202 38.3701Z" fill="#4FA0FF"/>
<path d="M92.3218 0H76.4249C73.914 0 71.8718 2.04219 71.8718 4.55312V54.325C71.8718 56.8359 73.914 58.8781 76.4249 58.8781H92.3218C94.8328 58.8781 96.875 56.8359 96.875 54.325V4.55312C96.875 2.04219 94.8328 0 92.3218 0ZM84.3734 39.35C82.5828 39.35 81.1265 37.8938 81.1265 36.1031C81.1265 34.3125 82.5828 32.8563 84.3734 32.8563C86.164 32.8563 87.6203 34.3125 87.6203 36.1031C87.6203 37.8938 86.1624 39.35 84.3734 39.35ZM93.8468 54.325C93.8468 55.1672 93.1624 55.8516 92.3203 55.8516H85.8859V42.1719C88.6124 41.4906 90.6468 39.0391 90.6468 36.1047C90.6468 32.6453 87.8328 29.8313 84.3734 29.8313C80.914 29.8313 78.1 32.6453 78.1 36.1047C78.1 39.0391 80.1328 41.4906 82.8593 42.1719V55.8516H76.4249C75.5843 55.8516 74.9 55.1672 74.9 54.325V4.55312C74.9 3.71094 75.5843 3.02656 76.4249 3.02656H92.3218C93.164 3.02656 93.8484 3.71094 93.8484 4.55312L93.8468 54.325Z" fill="#4FA0FF"/>
<path d="M90.7593 6.66406H77.9874C77.1515 6.66406 76.4734 7.34219 76.4734 8.17812C76.4734 9.01406 77.1515 9.69219 77.9874 9.69219H90.7593C91.5953 9.69219 92.2734 9.01406 92.2734 8.17812C92.2734 7.34219 91.5953 6.66406 90.7593 6.66406Z" fill="#4FA0FF"/>
</svg>
