<svg width="86" height="86" viewBox="0 0 86 86" fill="none" xmlns="http://www.w3.org/2000/svg">
<path d="M58.7667 25.8C57.3262 25.8001 55.8881 25.9175 54.4667 26.1512V4.3C54.4667 3.15957 54.0136 2.06585 53.2072 1.25944C52.4008 0.453034 51.3071 0 50.1667 0L4.3 0C3.15957 0 2.06585 0.453034 1.25944 1.25944C0.453034 2.06585 0 3.15957 0 4.3L0 81.7C0 82.8404 0.453034 83.9342 1.25944 84.7406C2.06585 85.547 3.15957 86 4.3 86H50.1667C51.3071 86 52.4008 85.547 53.2072 84.7406C54.0136 83.9342 54.4667 82.8404 54.4667 81.7V79.9155C55.8881 80.1492 57.3262 80.2666 58.7667 80.2667C65.9894 80.2667 72.9163 77.3974 78.0235 72.2902C83.1308 67.183 86 60.2561 86 53.0333C86 45.8106 83.1308 38.8837 78.0235 33.7765C72.9163 28.6692 65.9894 25.8 58.7667 25.8ZM58.7667 28.6667C63.8435 28.6756 68.7911 30.2685 72.9195 33.2232C77.048 36.178 80.1515 40.3473 81.7975 45.15L70.7278 48.2317C69.5054 45.133 67.1225 42.6334 64.0858 41.2643C61.0491 39.8952 57.5982 39.7645 54.4667 40.9002V29.0967C55.8836 28.8207 57.3231 28.6767 58.7667 28.6667ZM83.1333 53.0333C83.131 54.7586 82.9451 56.4787 82.5786 58.1647L71.4889 55.0787C71.7259 53.7254 71.7259 52.3412 71.4889 50.988L82.5786 47.902C82.9451 49.5879 83.131 51.3081 83.1333 53.0333ZM54.4667 58.7294C55.6999 59.678 57.2108 60.1947 58.7667 60.2C60.6674 60.2 62.4903 59.4449 63.8343 58.1009C65.1783 56.7569 65.9333 54.934 65.9333 53.0333C65.9333 51.1326 65.1783 49.3097 63.8343 47.9657C62.4903 46.6217 60.6674 45.8667 58.7667 45.8667C57.2108 45.8719 55.6999 46.3887 54.4667 47.3373V44.0033C55.8057 43.3482 57.2759 43.0051 58.7667 43C61.4277 43 63.9797 44.0571 65.8613 45.9387C67.7429 47.8203 68.8 50.3723 68.8 53.0333C68.8 55.6943 67.7429 58.2464 65.8613 60.128C63.9797 62.0096 61.4277 63.0667 58.7667 63.0667C57.2759 63.0615 55.8057 62.7185 54.4667 62.0633V58.7294ZM54.4667 53.0333C54.4667 52.1829 54.7189 51.3515 55.1913 50.6444C55.6638 49.9372 56.3354 49.3861 57.1211 49.0607C57.9068 48.7352 58.7714 48.65 59.6056 48.816C60.4397 48.9819 61.2059 49.3914 61.8072 49.9928C62.4086 50.5941 62.8181 51.3603 62.984 52.1944C63.15 53.0286 63.0648 53.8931 62.7393 54.6789C62.4139 55.4646 61.8627 56.1362 61.1556 56.6087C60.4485 57.0811 59.6171 57.3333 58.7667 57.3333C57.6262 57.3333 56.5325 56.8803 55.7261 56.0739C54.9197 55.2675 54.4667 54.1738 54.4667 53.0333ZM51.6 81.7C51.6 82.0801 51.449 82.4447 51.1802 82.7135C50.9114 82.9823 50.5468 83.1333 50.1667 83.1333H4.3C3.91986 83.1333 3.55528 82.9823 3.28648 82.7135C3.01768 82.4447 2.86667 82.0801 2.86667 81.7V4.3C2.86667 3.91986 3.01768 3.55528 3.28648 3.28648C3.55528 3.01768 3.91986 2.86667 4.3 2.86667H50.1667C50.5468 2.86667 50.9114 3.01768 51.1802 3.28648C51.449 3.55528 51.6 3.91986 51.6 4.3V81.7ZM58.7667 77.4C57.3231 77.39 55.8836 77.246 54.4667 76.97V65.1665C57.5974 66.3024 61.0478 66.1726 64.0844 64.8046C67.1209 63.4366 69.5043 60.9383 70.7278 57.8407L81.7975 60.9224C80.1506 65.724 77.0466 69.8921 72.9182 72.8458C68.7899 75.7995 63.8428 77.3915 58.7667 77.4Z" fill="#4FA0FF"/>
<path d="M18.6335 44.4333C20.5335 44.431 22.355 43.6752 23.6986 42.3317C25.0421 40.9882 25.7979 39.1667 25.8001 37.2666V25.8C25.8001 23.8992 25.0451 22.0764 23.7011 20.7324C22.3571 19.3884 20.5342 18.6333 18.6335 18.6333C16.7327 18.6333 14.9099 19.3884 13.5659 20.7324C12.2219 22.0764 11.4668 23.8992 11.4668 25.8V37.2666C11.4691 39.1667 12.2249 40.9882 13.5684 42.3317C14.9119 43.6752 16.7334 44.431 18.6335 44.4333ZM14.3335 25.8C14.3335 24.6595 14.7865 23.5658 15.5929 22.7594C16.3993 21.953 17.493 21.5 18.6335 21.5C19.7739 21.5 20.8676 21.953 21.674 22.7594C22.4804 23.5658 22.9335 24.6595 22.9335 25.8V37.2666C22.9335 38.4071 22.4804 39.5008 21.674 40.3072C20.8676 41.1136 19.7739 41.5666 18.6335 41.5666C17.493 41.5666 16.3993 41.1136 15.5929 40.3072C14.7865 39.5008 14.3335 38.4071 14.3335 37.2666V25.8Z" fill="#4FA0FF"/>
<path d="M35.8334 41.5666C34.693 41.5666 33.5993 41.1136 32.7929 40.3072C31.9865 39.5008 31.5334 38.4071 31.5334 37.2666C31.5334 36.8865 31.3824 36.5219 31.1136 36.2531C30.8448 35.9843 30.4802 35.8333 30.1001 35.8333C29.7199 35.8333 29.3554 35.9843 29.0866 36.2531C28.8178 36.5219 28.6668 36.8865 28.6668 37.2666C28.6668 38.6841 29.0871 40.0697 29.8746 41.2482C30.662 42.4268 31.7813 43.3453 33.0909 43.8878C34.4004 44.4302 35.8414 44.5721 37.2316 44.2956C38.6218 44.0191 39.8987 43.3365 40.901 42.3342C41.9033 41.332 42.5859 40.055 42.8624 38.6648C43.1389 37.2746 42.997 35.8336 42.4546 34.5241C41.9121 33.2145 40.9936 32.0953 39.815 31.3078C38.6365 30.5203 37.2509 30.1 35.8334 30.1C34.983 30.1 34.1516 29.8478 33.4445 29.3753C32.7373 28.9028 32.1862 28.2312 31.8607 27.4455C31.5353 26.6598 31.4501 25.7952 31.616 24.9611C31.782 24.127 32.1915 23.3608 32.7929 22.7594C33.3942 22.158 34.1604 21.7485 34.9945 21.5826C35.8286 21.4167 36.6932 21.5018 37.479 21.8273C38.2647 22.1527 38.9362 22.7039 39.4087 23.411C39.8812 24.1182 40.1334 24.9495 40.1334 25.8C40.1334 26.1801 40.2844 26.5447 40.5532 26.8135C40.822 27.0823 41.1866 27.2333 41.5668 27.2333C41.9469 27.2333 42.3115 27.0823 42.5803 26.8135C42.8491 26.5447 43.0001 26.1801 43.0001 25.8C43.0001 24.3825 42.5798 22.9969 41.7923 21.8184C41.0048 20.6398 39.8855 19.7213 38.576 19.1788C37.2664 18.6364 35.8255 18.4945 34.4353 18.771C33.0451 19.0475 31.7681 19.7301 30.7658 20.7324C29.7635 21.7346 29.081 23.0116 28.8045 24.4018C28.5279 25.792 28.6699 27.233 29.2123 28.5425C29.7547 29.8521 30.6733 30.9714 31.8518 31.7588C33.0304 32.5463 34.416 32.9666 35.8334 32.9666C36.9739 32.9666 38.0676 33.4197 38.874 34.2261C39.6804 35.0325 40.1334 36.1262 40.1334 37.2666C40.1334 38.4071 39.6804 39.5008 38.874 40.3072C38.0676 41.1136 36.9739 41.5666 35.8334 41.5666Z" fill="#4FA0FF"/>
<path d="M44.4329 50.167H10.0329C9.6528 50.167 9.28823 50.318 9.01942 50.5868C8.75062 50.8556 8.59961 51.2202 8.59961 51.6003C8.59961 51.9805 8.75062 52.345 9.01942 52.6138C9.28823 52.8826 9.6528 53.0337 10.0329 53.0337H44.4329C44.8131 53.0337 45.1777 52.8826 45.4465 52.6138C45.7153 52.345 45.8663 51.9805 45.8663 51.6003C45.8663 51.2202 45.7153 50.8556 45.4465 50.5868C45.1777 50.318 44.8131 50.167 44.4329 50.167Z" fill="#4FA0FF"/>
<path d="M35.8333 55.8999H18.6333C18.2531 55.8999 17.8886 56.0509 17.6198 56.3197C17.351 56.5885 17.2 56.9531 17.2 57.3332C17.2 57.7134 17.351 58.078 17.6198 58.3468C17.8886 58.6156 18.2531 58.7666 18.6333 58.7666H35.8333C36.2134 58.7666 36.578 58.6156 36.8468 58.3468C37.1156 58.078 37.2666 57.7134 37.2666 57.3332C37.2666 56.9531 37.1156 56.5885 36.8468 56.3197C36.578 56.0509 36.2134 55.8999 35.8333 55.8999Z" fill="#4FA0FF"/>
</svg>
