<svg width="86" height="86" viewBox="0 0 86 86" fill="none" xmlns="http://www.w3.org/2000/svg">
<path d="M81.7001 0H4.30001C1.92518 0 0 1.92518 0 4.30001V61.6334C0 64.0083 1.92518 65.9334 4.30001 65.9334H13.6339C18.3532 78.0341 30.0117 86.0011 43.0001 86.0011C55.9884 86.0011 67.647 78.0341 72.3663 65.9334H81.7001C84.075 65.9334 86.0001 64.0083 86.0001 61.6334V4.30001C86.0001 1.92518 84.075 0 81.7001 0ZM4.30001 2.86667H81.7001C82.4918 2.86667 83.1335 3.5084 83.1335 4.30001V11.4667H2.86667V4.30001C2.86667 3.5084 3.5084 2.86667 4.30001 2.86667ZM25.8387 55.9001C25.9158 60.1234 26.4853 64.3233 27.5358 68.4146C24.6534 68.8115 21.7927 69.3526 18.9645 70.0357C16.2202 65.8106 14.6473 60.9324 14.4065 55.9001H25.8387ZM44.4334 41.5467C48.2403 41.5008 51.9713 41.2815 55.559 40.8845C56.6259 44.8492 57.2092 48.9285 57.2962 53.0334H44.4334V41.5467ZM44.4334 38.68V25.9505C48.6087 26.8249 52.3168 31.4732 54.6689 38.0938C51.3622 38.4406 47.9336 38.637 44.4334 38.68ZM41.5667 25.9505V38.68C38.0665 38.637 34.638 38.4406 31.3313 38.0938C33.6834 31.4732 37.3914 26.8249 41.5667 25.9505ZM41.5667 41.5467V53.0334H28.704C28.7909 48.9285 29.3742 44.8492 30.4412 40.8845C34.0288 41.2801 37.7598 41.5008 41.5667 41.5467ZM28.704 55.9001H41.5667V67.3869C37.7598 67.4327 34.0288 67.652 30.4412 68.0491C29.3742 64.0843 28.7909 60.005 28.704 55.9001ZM41.5667 70.2535V82.9902C37.3914 82.1158 33.6834 77.4675 31.3313 70.8469C34.638 70.4929 38.0665 70.2965 41.5667 70.2535ZM44.4334 82.9902V70.2535C47.9336 70.2965 51.3622 70.4929 54.6689 70.8398C52.3168 77.4603 48.6087 82.1087 44.4334 82.9902ZM44.4334 67.394V55.9001H57.2962C57.2092 60.005 56.6259 64.0843 55.559 68.0491C51.9713 67.6535 48.2403 67.4327 44.4334 67.3869V67.394ZM60.1614 55.9001H71.5937C71.3529 60.9324 69.7799 65.8106 67.0357 70.0357C64.2074 69.3526 61.3467 68.8115 58.4643 68.4146C59.5148 64.3233 60.0844 60.1234 60.1614 55.9001ZM60.1614 53.0334C60.0844 48.8101 59.5148 44.6103 58.4643 40.519C61.3467 40.122 64.2074 39.5809 67.0357 38.8979C69.7799 43.123 71.3529 48.0011 71.5937 53.0334H60.1614ZM57.6359 37.7383C56.4332 33.8257 54.4053 30.2166 51.689 27.1545C56.9975 28.8547 61.6974 32.0612 65.2168 36.3838C62.8073 36.9313 60.2689 37.3828 57.6359 37.7383ZM28.3643 37.7383C25.7312 37.3828 23.1928 36.9313 20.7819 36.3838C24.3017 32.061 29.0021 28.8545 34.3112 27.1545C31.5948 30.2166 29.5669 33.8257 28.3643 37.7383ZM18.9645 38.8979C21.7927 39.5809 24.6534 40.122 27.5358 40.519C26.4853 44.6103 25.9158 48.8101 25.8387 53.0334H14.4065C14.6473 48.0011 16.2202 43.123 18.9645 38.8979ZM20.7834 72.5497C23.1942 72.0022 25.7327 71.5464 28.3657 71.1952C29.5683 75.1078 31.5963 78.7169 34.3126 81.779C29.0036 80.0791 24.3031 76.8726 20.7834 72.5497ZM51.6904 81.779C54.4067 78.7169 56.4347 75.1078 57.6373 71.1952C60.2703 71.5507 62.8088 72.0022 65.2196 72.5497C61.6995 76.8728 57 80.0793 51.6904 81.779ZM81.7001 63.0668H73.3309C76.9891 50.2026 72.1344 36.43 61.218 28.7032C50.3017 20.9764 35.6985 20.9764 24.7821 28.7032C13.8657 36.43 9.011 50.2026 12.6693 63.0668H4.30001C3.5084 63.0668 2.86667 62.4251 2.86667 61.6334V14.3334H83.1335V61.6334C83.1335 62.4251 82.4918 63.0668 81.7001 63.0668Z" fill="#4FA0FF"/>
<path d="M7.16673 8.60007C7.95834 8.60007 8.60007 7.95834 8.60007 7.16673C8.60007 6.37512 7.95834 5.7334 7.16673 5.7334C6.37512 5.7334 5.7334 6.37512 5.7334 7.16673C5.7334 7.95834 6.37512 8.60007 7.16673 8.60007Z" fill="#4FA0FF"/>
<path d="M12.9001 8.60007C13.6917 8.60007 14.3335 7.95834 14.3335 7.16673C14.3335 6.37512 13.6917 5.7334 12.9001 5.7334C12.1085 5.7334 11.4668 6.37512 11.4668 7.16673C11.4668 7.95834 12.1085 8.60007 12.9001 8.60007Z" fill="#4FA0FF"/>
<path d="M18.6335 8.60007C19.4251 8.60007 20.0669 7.95834 20.0669 7.16673C20.0669 6.37512 19.4251 5.7334 18.6335 5.7334C17.8419 5.7334 17.2002 6.37512 17.2002 7.16673C17.2002 7.95834 17.8419 8.60007 18.6335 8.60007Z" fill="#4FA0FF"/>
<path d="M38.6999 8.60007H47.3C48.0916 8.60007 48.7333 7.95834 48.7333 7.16673C48.7333 6.37512 48.0916 5.7334 47.3 5.7334H38.6999C37.9083 5.7334 37.2666 6.37512 37.2666 7.16673C37.2666 7.95834 37.9083 8.60007 38.6999 8.60007Z" fill="#4FA0FF"/>
<path d="M63.0664 8.60007H78.8331C79.6247 8.60007 80.2664 7.95834 80.2664 7.16673C80.2664 6.37512 79.6247 5.7334 78.8331 5.7334H63.0664C62.2748 5.7334 61.6331 6.37512 61.6331 7.16673C61.6331 7.95834 62.2748 8.60007 63.0664 8.60007Z" fill="#4FA0FF"/>
<path d="M7.16673 21.4995H10.0334C10.825 21.4995 11.4667 20.8578 11.4667 20.0661C11.4667 19.2745 10.825 18.6328 10.0334 18.6328H7.16673C6.37512 18.6328 5.7334 19.2745 5.7334 20.0661C5.7334 20.8578 6.37512 21.4995 7.16673 21.4995Z" fill="#4FA0FF"/>
<path d="M10.0334 30.1001H7.16673C6.37512 30.1001 5.7334 30.7418 5.7334 31.5334C5.7334 32.325 6.37512 32.9668 7.16673 32.9668H10.0334C10.825 32.9668 11.4667 32.325 11.4667 31.5334C11.4667 30.7418 10.825 30.1001 10.0334 30.1001Z" fill="#4FA0FF"/>
<path d="M28.6664 18.6328H15.7663C14.9747 18.6328 14.333 19.2745 14.333 20.0661C14.333 20.8578 14.9747 21.4995 15.7663 21.4995H28.6664C29.458 21.4995 30.0997 20.8578 30.0997 20.0661C30.0997 19.2745 29.458 18.6328 28.6664 18.6328Z" fill="#4FA0FF"/>
<path d="M18.6334 24.3672H7.16673C6.37512 24.3672 5.7334 25.0089 5.7334 25.8005C5.7334 26.5921 6.37512 27.2339 7.16673 27.2339H18.6334C19.425 27.2339 20.0668 26.5921 20.0668 25.8005C20.0668 25.0089 19.425 24.3672 18.6334 24.3672Z" fill="#4FA0FF"/>
</svg>
