<svg width="100" height="100" viewBox="0 0 100 100" fill="none" xmlns="http://www.w3.org/2000/svg">
<path d="M88.8391 7H11.1613C8.86704 7 7 8.86704 7 11.1613V72.1938C7 74.4881 8.86704 76.3551 11.1613 76.3551H48.6131V77.118C48.6131 78.6078 48.9626 80.1017 49.6257 81.4361L52.7744 87.7765V92.9379L77.7422 93.0031V87.9138L79.9616 84.9552C81.2141 83.2851 81.9035 81.2169 81.9035 79.1293V76.3551H88.8391C91.1333 76.3551 93.0004 74.4881 93.0004 72.1938V11.1613C93.0004 8.86704 91.1333 7 88.8391 7ZM11.1613 9.7742H88.8391C89.6033 9.7742 90.2262 10.397 90.2262 11.1613V23.6452H9.7742V11.1613C9.7742 10.397 10.397 9.7742 11.1613 9.7742ZM61.097 40.2905C58.8027 40.2905 56.9357 42.1575 56.9357 44.4518V45.8389H40.2905V31.9678H84.6777V45.8389H65.2583V44.4518C65.2583 42.1575 63.3913 40.2905 61.097 40.2905ZM56.9357 62.8406C55.0756 60.8834 52.4359 59.6516 49.4717 59.6516C47.4701 59.6516 45.8403 61.2801 45.8389 63.2831C45.8389 63.8435 45.972 64.4052 46.2217 64.9088L47.785 68.0325H40.2905V54.1615H56.9357V62.8406ZM79.1293 79.1293C79.1293 80.6205 78.6369 82.0991 77.7422 83.2906L74.968 86.99V90.2234L55.5486 90.1707V87.126L52.11 80.2016C51.637 79.2486 51.3873 78.1833 51.3873 77.118V71.4198C51.3873 69.8579 51.0183 68.2947 50.3206 66.8992L48.7046 63.6673C48.645 63.5494 48.6131 63.4148 48.6131 63.2831C48.6131 62.8101 48.9987 62.4258 49.6035 62.4258C53.6469 62.4258 56.9357 65.716 56.9357 69.7594V72.1356V74.9098H59.7099V72.1356V69.7594V44.4518C59.7099 43.6875 60.3327 43.0647 61.097 43.0647C61.8613 43.0647 62.4841 43.6875 62.4841 44.4518V61.097V66.6454H65.2583V61.097C65.2583 60.3327 65.8811 59.7099 66.6454 59.7099C67.4097 59.7099 68.0325 60.3327 68.0325 61.097V66.6454H70.8067V61.097C70.8067 60.3327 71.4295 59.7099 72.1938 59.7099C72.9581 59.7099 73.5809 60.3327 73.5809 61.097V63.8712V66.6454H76.3551V63.8712C76.3551 63.1069 76.9779 62.4841 77.7422 62.4841C78.5065 62.4841 79.1293 63.1069 79.1293 63.8712V79.1293ZM77.7422 59.7099C77.1943 59.7099 76.6742 59.8222 76.1942 60.0151C75.7157 58.2465 74.1122 56.9357 72.1938 56.9357C71.1244 56.9357 70.1576 57.3532 69.4196 58.0176C68.6817 57.3518 67.7149 56.9357 66.6454 56.9357C66.1571 56.9357 65.6939 57.0356 65.2583 57.1909V54.1615H84.6777V68.0325H81.9035V63.8712C81.9035 61.5769 80.0365 59.7099 77.7422 59.7099ZM88.8391 73.5809H81.9035V70.8067H87.4519V51.3873H65.2583V48.6131H87.4519V29.1936H37.5163V48.6131H56.9357V51.3873H37.5163V70.8067H48.577C48.595 71.0106 48.6131 71.2159 48.6131 71.4198V73.5809H11.1613C10.397 73.5809 9.7742 72.9581 9.7742 72.1938V26.4194H90.2262V72.1938C90.2262 72.9581 89.6033 73.5809 88.8391 73.5809Z" fill="#4FA0FF"/>
<path d="M20.8705 12.5488H12.5479V20.8714H20.8705V12.5488ZM18.0963 18.0972H15.3221V15.323H18.0963V18.0972Z" fill="#4FA0FF"/>
<path d="M31.9671 12.5488H23.6445V20.8714H31.9671V12.5488ZM29.1929 18.0972H26.4187V15.323H29.1929V18.0972Z" fill="#4FA0FF"/>
<path d="M43.0646 12.5488H34.7419V20.8714H43.0646V12.5488ZM40.2904 18.0972H37.5161V15.323H40.2904V18.0972Z" fill="#4FA0FF"/>
<path d="M43.0647 34.7422H45.8389V37.5164H43.0647V34.7422Z" fill="#4FA0FF"/>
<path d="M48.6133 34.7422H81.9037V37.5164H48.6133V34.7422Z" fill="#4FA0FF"/>
<path d="M68.0322 40.2905H81.9032V43.0647H68.0322V40.2905Z" fill="#4FA0FF"/>
<path d="M43.0647 40.2905H54.1615V43.0647H43.0647V40.2905Z" fill="#4FA0FF"/>
<path d="M15.322 48.6133H34.7415V29.1938H15.322V48.6133ZM18.0962 31.9681H31.9673V45.8391H18.0962V31.9681Z" fill="#4FA0FF"/>
<path d="M23.6455 39.7166L21.852 37.923L19.8906 39.8844L23.6455 43.6393L31.5617 35.7231L29.6003 33.7617L23.6455 39.7166Z" fill="#4FA0FF"/>
<path d="M15.322 70.8066H34.7415V51.3872H15.322V70.8066ZM18.0962 54.1614H31.9673V68.0324H18.0962V54.1614Z" fill="#4FA0FF"/>
<path d="M23.6455 61.9099L21.852 60.1164L19.8906 62.0778L23.6455 65.8326L31.5617 57.9164L29.6003 55.9551L23.6455 61.9099Z" fill="#4FA0FF"/>
</svg>
